<svg width="720" height="180" viewBox="0 0 720 180" fill="none" xmlns="http://www.w3.org/2000/svg" role="img" aria-labelledby="title">
  <title id="title">GIOTO Bangladesh logo</title>
  <g fill="#fff">
    <rect x="42" y="25" width="18" height="18" rx="3"/>
    <rect x="96" y="25" width="18" height="18" rx="3"/>
    <path d="M42 57h18v35c0 21 17 38 38 38s38-17 38-38V57h18v35c0 31-25 56-56 56s-56-25-56-56V57Z"/>
    <path d="M82 57h18v35c0 6 5 11 12 11s12-5 12-11V57h18v35c0 16-13 29-30 29S82 108 82 92V57Z"/>
  </g>
  <g fill="#fff" font-family="Arial, Helvetica, sans-serif" font-weight="900">
    <text x="190" y="111" font-size="76" letter-spacing="8">GIOTO</text>
  </g>
  <g>
    <rect x="192" y="128" width="238" height="34" fill="#fff"/>
    <text x="311" y="154" text-anchor="middle" font-family="Arial, Helvetica, sans-serif" font-size="27" font-weight="900" letter-spacing="1" fill="#000">BANGLADESH</text>
  </g>
</svg>
